              <svg
                version="1.1"
                xmlns="http://www.w3.org/2000/svg"
                xmlns:xlink="http://www.w3.org/1999/xlink"
                width="34"
                height="34"
                viewBox="0 0 88 56"
              >
                <title>Up</title>
                <path
                  fill-rule="evenodd"
                  d="M86.9419643,11.328125 C86.9419643,9.35639881 86.2537202,7.68229167 84.8772321,6.30580357 L80.6919643,2.12053571 C79.2782738,0.706845238 77.5855655,0 75.6138393,0 C73.6049107,0 71.9308036,0.706845238 70.5915179,2.12053571 L43.4709821,29.1852679 L16.3504464,2.12053571 C15.0111607,0.706845238 13.3370536,0 11.328125,0 C9.31919643,0 7.64508929,0.706845238 6.30580357,2.12053571 L2.12053571,6.30580357 C0.706845238,7.64508929 0,9.31919643 0,11.328125 C0,13.2998512 0.706845238,14.9925595 2.12053571,16.40625 L38.4486607,52.734375 C39.8251488,54.1108631 41.499256,54.7991071 43.4709821,54.7991071 C45.405506,54.7991071 47.0982143,54.1108631 48.5491071,52.734375 L84.8214286,16.40625 C86.235119,14.9925595 86.9419643,13.2998512 86.9419643,11.328125 Z"
                  transform="matrix(1 0 0 -1 .771 55.389)"
                />
              </svg>
