<?xml version="1.0" standalone="no"?>
<!DOCTYPE svg PUBLIC "-//W3C//DTD SVG 20010904//EN"
 "http://www.w3.org/TR/2001/REC-SVG-20010904/DTD/svg10.dtd">
<svg version="1.0" xmlns="http://www.w3.org/2000/svg"
 width="2400.000000pt" height="2400.000000pt" viewBox="0 0 2400.000000 2400.000000"
 preserveAspectRatio="xMidYMid meet">
<metadata>
Created by potrace 1.11, written by Peter Selinger 2001-2013
</metadata>
<g transform="translate(0.000000,2400.000000) scale(0.100000,-0.100000)"
fill="#000000" stroke="none">
<path d="M9935 20869 c-443 -35 -848 -279 -1086 -654 -14 -22 -367 -632 -784
-1355 -417 -723 -762 -1319 -767 -1324 -9 -11 22 103 47 173 20 58 95 196 151
277 l44 64 -108 -6 c-356 -19 -678 -90 -991 -218 -435 -178 -851 -471 -1163
-819 -64 -71 -80 -84 -85 -70 -4 10 -7 115 -7 233 -1 225 9 323 50 519 13 63
22 117 20 119 -7 6 -248 -112 -353 -173 -248 -146 -454 -306 -664 -515 -333
-333 -598 -735 -754 -1145 -21 -55 -41 -104 -45 -108 -18 -21 -71 212 -90 398
-6 61 -14 157 -18 215 l-7 105 -54 -95 c-153 -270 -325 -626 -441 -914 -146
-366 -205 -602 -225 -908 -4 -54 -11 -98 -15 -98 -5 0 -68 15 -142 34 -357 90
-707 280 -1027 557 l-81 70 0 -93 c1 -428 204 -888 510 -1154 160 -139 399
-269 636 -346 l132 -43 6 -115 c14 -230 47 -682 71 -955 14 -154 25 -288 25
-298 0 -15 -7 -12 -42 16 -53 43 -118 76 -183 93 -68 19 -68 19 -39 -23 60
-88 119 -242 148 -386 17 -79 42 -335 34 -342 -2 -3 -30 4 -61 15 -87 31 -182
23 -141 -11 32 -26 96 -121 134 -198 45 -89 76 -192 85 -276 6 -56 5 -61 -17
-74 -54 -33 -220 -172 -301 -253 l-87 -88 -103 -10 c-117 -12 -217 -30 -217
-39 0 -3 22 -21 48 -39 60 -40 139 -118 147 -143 7 -21 0 -30 -201 -251 -157
-171 -316 -361 -434 -518 -112 -149 -196 -275 -179 -267 103 46 198 79 254 88
68 12 145 6 145 -10 0 -4 -15 -28 -33 -52 -136 -178 -300 -520 -391 -811 -35
-113 -99 -379 -92 -385 2 -2 37 8 79 22 76 25 150 32 176 16 11 -7 4 -33 -37
-137 -105 -268 -171 -540 -191 -793 -5 -62 -11 -113 -13 -115 -1 -1 -58 -35
-126 -74 -67 -40 -122 -75 -122 -77 0 -2 43 -34 95 -70 52 -37 95 -70 95 -75
0 -68 -42 -148 -488 -919 -504 -873 -536 -931 -581 -1066 -49 -148 -63 -229
-68 -404 -7 -222 18 -374 94 -566 178 -449 565 -770 1053 -872 81 -17 550 -18
10815 -18 10325 0 10733 1 10820 18 272 55 513 180 712 370 212 203 352 456
415 750 31 145 31 399 0 544 -27 123 -71 252 -123 355 -54 107 -6949 12045
-7014 12145 -208 315 -529 529 -915 610 -63 13 -131 18 -265 18 -201 0 -276
-12 -452 -70 -287 -96 -548 -294 -717 -545 -41 -60 -744 -1272 -749 -1290 -1
-4 180 -324 403 -710 375 -651 406 -700 419 -681 7 12 256 441 552 953 296
513 541 933 545 933 7 0 6924 -11975 6924 -11987 0 -5 -549 -8 -1220 -8
l-1220 0 0 -62 c0 -77 -22 -217 -50 -317 -120 -428 -437 -781 -847 -941 -105
-41 -250 -80 -293 -79 -14 0 13 9 60 19 554 121 975 547 1097 1112 26 118 25
428 0 548 -26 120 -70 247 -122 351 -39 79 -6237 10822 -6255 10842 -3 4 -868
-1484 -1920 -3307 -1053 -1823 -1917 -3313 -1921 -3310 -4 2 -11 19 -14 37 -6
25 -61 214 -131 450 -4 14 1 17 29 17 45 0 176 34 222 57 l36 19 -86 53 c-175
107 -345 260 -518 466 -107 127 -435 460 -576 585 -47 41 -81 69 -77 61 6 -9
5 -12 -5 -9 -12 4 -14 89 -14 519 0 464 2 522 19 598 42 192 145 437 253 602
26 41 51 79 55 85 12 18 -87 -2 -139 -28 -55 -28 -126 -88 -165 -142 l-28 -39
0 445 0 444 53 14 c137 35 371 136 512 221 346 209 582 550 679 980 28 124 46
312 37 379 l-6 41 -30 -31 c-51 -54 -244 -204 -360 -280 -128 -83 -365 -204
-492 -249 -108 -40 -304 -94 -311 -86 -8 7 42 180 85 294 79 213 210 443 337
591 l55 65 -34 3 c-42 4 -139 -20 -197 -48 -23 -11 -44 -20 -46 -20 -6 0 6
115 24 230 52 333 148 632 256 797 27 41 48 76 46 78 -12 11 -246 47 -346 54
-188 13 -450 -14 -566 -58 -22 -9 -27 -9 -23 1 17 43 1664 2881 1671 2882 6 1
639 -1088 1407 -2419 769 -1331 1400 -2420 1403 -2420 7 0 809 1387 809 1400
0 14 -2384 4143 -2452 4245 -75 114 -251 289 -370 368 -274 183 -589 267 -906
241z m6244 -12021 c1370 -2374 2491 -4319 2491 -4322 0 -3 -2099 -6 -4665 -6
l-4666 0 -52 27 -52 26 40 18 c22 10 49 19 60 19 34 1 -44 38 -97 46 l-48 7
32 59 c37 70 109 154 141 164 21 7 21 8 -7 15 -37 10 -82 1 -126 -26 -50 -31
-67 -35 -79 -21 -10 11 -61 246 -61 280 0 12 10 16 48 16 50 0 195 21 273 39
215 49 416 181 476 311 10 22 21 40 24 40 16 0 40 -41 52 -90 l14 -55 45 70
c132 205 218 465 218 662 l0 75 28 -6 c15 -4 44 -15 65 -25 l37 -19 7 26 c17
70 -23 687 -66 1011 l-18 136 1690 2928 c930 1610 1694 2924 1697 2920 4 -4
1128 -1950 2499 -4325z m-14064 -3703 c49 -14 121 -28 161 -32 l71 -6 -9 -51
c-14 -86 -40 -190 -50 -203 -11 -13 -28 -9 -78 22 -44 27 -89 36 -126 25 -16
-4 -22 -9 -13 -9 25 -1 110 -99 147 -168 l32 -61 -47 -7 c-27 -3 -63 -14 -81
-24 l-33 -17 51 -13 c27 -7 52 -17 55 -22 3 -4 -17 -20 -44 -34 l-50 -25 -342
0 c-301 0 -340 2 -335 15 5 15 313 550 383 667 l34 56 92 -43 c50 -24 132 -55
182 -70z m4710 60 c-16 -8 -35 -14 -41 -15 -7 0 13 -44 42 -97 63 -115 158
-327 209 -466 19 -54 35 -100 35 -102 0 -3 -576 -5 -1280 -5 -751 0 -1280 4
-1280 9 0 35 160 398 245 557 45 84 53 104 39 104 -10 0 -15 3 -11 6 3 3 27
-1 54 -10 86 -28 347 -85 489 -105 459 -67 901 -45 1280 63 65 19 142 43 169
54 57 23 96 28 50 7z m1420 -2026 c33 -11 98 -29 145 -39 47 -10 73 -19 59
-19 -32 -1 -201 41 -249 62 -50 22 -25 20 45 -4z"/>
</g>
</svg>
